<svg id="svg" version="1.1" xmlns="http://www.w3.org/2000/svg" xmlns:xlink="http://www.w3.org/1999/xlink" width="400" height="197.80907668231612" viewBox="0, 0, 400,197.80907668231612"><g id="svgg"><path id="path0" d="M189.862 8.840 C 189.018 8.883,188.328 9.004,188.328 9.108 C 188.328 9.212,188.023 9.298,187.650 9.298 C 187.277 9.298,186.838 9.431,186.675 9.594 C 186.512 9.758,186.296 9.891,186.195 9.891 C 186.094 9.891,185.600 10.292,185.096 10.781 C 184.592 11.271,184.045 11.672,183.880 11.672 C 183.715 11.672,183.581 11.764,183.581 11.877 C 183.581 11.990,183.202 12.446,182.740 12.890 C 180.526 15.016,180.218 15.342,180.218 15.560 C 180.218 15.688,179.862 16.164,179.426 16.617 C 178.991 17.070,178.635 17.567,178.635 17.721 C 178.635 17.876,178.556 18.002,178.460 18.002 C 178.274 18.002,177.982 18.744,178.023 19.115 C 178.037 19.237,177.824 19.484,177.550 19.663 C 177.276 19.843,177.052 20.121,177.052 20.282 C 177.052 20.442,176.973 20.574,176.876 20.574 C 176.779 20.574,176.642 20.804,176.571 21.085 C 176.501 21.366,176.265 21.787,176.048 22.021 C 175.830 22.254,175.602 22.647,175.540 22.894 C 175.478 23.141,175.352 23.343,175.260 23.343 C 175.167 23.343,175.034 23.654,174.963 24.034 C 174.891 24.414,174.756 24.677,174.663 24.619 C 174.569 24.561,174.436 24.740,174.366 25.017 C 174.297 25.293,174.161 25.519,174.064 25.519 C 173.967 25.519,173.884 25.720,173.881 25.964 C 173.877 26.209,173.744 26.582,173.584 26.793 C 173.424 27.005,173.294 27.383,173.294 27.634 C 173.294 27.885,173.211 28.091,173.110 28.091 C 173.009 28.091,172.865 28.581,172.791 29.179 C 172.716 29.777,172.576 30.267,172.480 30.267 C 172.383 30.267,172.305 30.662,172.305 31.146 C 172.305 31.629,172.223 32.075,172.122 32.137 C 172.022 32.199,171.884 32.849,171.816 33.583 C 171.748 34.316,171.614 35.060,171.519 35.236 C 171.423 35.412,171.282 36.191,171.206 36.967 C 171.129 37.743,171.000 38.378,170.919 38.378 C 170.715 38.378,170.475 40.325,170.439 42.277 C 170.422 43.170,170.345 43.964,170.269 44.041 C 170.192 44.118,170.129 45.145,170.129 46.324 C 170.129 47.502,170.048 48.467,169.951 48.467 C 169.853 48.467,169.708 50.069,169.629 52.028 C 169.549 53.986,169.407 55.589,169.312 55.589 C 169.217 55.589,169.139 57.191,169.139 59.149 C 169.139 61.391,169.213 62.710,169.337 62.710 C 169.623 62.710,169.581 63.255,169.288 63.353 C 169.097 63.416,169.026 65.146,168.978 70.887 C 168.941 75.329,168.841 78.338,168.731 78.338 C 168.343 78.338,168.534 80.979,168.959 81.489 C 169.427 82.052,171.582 82.219,172.162 81.738 C 172.334 81.595,172.974 81.426,173.583 81.363 C 174.192 81.301,174.737 81.173,174.795 81.080 C 174.853 80.986,175.072 80.910,175.284 80.910 C 175.495 80.910,175.668 80.831,175.668 80.734 C 175.668 80.637,175.979 80.500,176.360 80.428 C 176.741 80.357,177.052 80.214,177.052 80.110 C 177.052 80.006,177.189 79.921,177.355 79.921 C 177.522 79.921,177.710 79.787,177.772 79.624 C 177.835 79.461,178.045 79.327,178.239 79.327 C 178.434 79.327,178.644 79.194,178.707 79.031 C 178.781 78.836,179.090 78.734,179.601 78.734 C 180.046 78.734,180.421 78.628,180.472 78.487 C 180.540 78.300,180.654 78.293,180.934 78.458 C 181.336 78.695,181.620 81.899,181.239 81.899 C 181.139 81.899,180.992 83.101,180.914 84.570 C 180.835 86.039,180.701 87.240,180.615 87.240 C 180.530 87.240,180.395 88.398,180.317 89.812 C 180.238 91.227,180.094 92.384,179.998 92.384 C 179.901 92.384,179.822 92.913,179.822 93.559 C 179.822 94.205,179.746 94.781,179.654 94.838 C 179.561 94.895,179.426 95.720,179.353 96.671 C 179.280 97.621,179.144 98.448,179.050 98.507 C 178.957 98.567,178.817 99.083,178.739 99.654 C 178.662 100.225,178.517 100.692,178.419 100.692 C 178.320 100.692,178.237 100.893,178.233 101.137 C 178.222 101.949,177.786 102.275,176.713 102.275 L 175.725 102.275 174.943 103.907 C 173.385 107.158,172.703 108.525,172.154 109.496 C 170.967 111.596,169.509 115.638,168.835 118.694 C 168.656 119.510,168.378 120.623,168.219 121.167 C 167.614 123.231,167.238 125.279,166.965 127.992 C 166.763 130.004,166.388 132.659,166.164 133.673 C 166.041 134.230,166.050 134.691,166.193 135.058 C 166.310 135.361,166.487 136.168,166.586 136.852 C 166.826 138.507,168.097 140.852,170.401 143.889 C 172.498 146.653,174.572 147.813,179.130 148.772 C 184.002 149.796,187.746 148.838,191.275 145.663 C 191.538 145.427,192.266 144.849,192.894 144.378 C 193.521 143.907,194.119 143.343,194.224 143.126 C 194.328 142.908,195.164 141.917,196.081 140.924 C 197.922 138.931,198.963 137.169,199.572 135.012 C 199.959 133.640,200.654 131.619,201.000 130.861 C 201.488 129.788,202.093 126.173,202.274 123.244 C 202.389 121.393,202.815 118.467,203.168 117.112 C 203.429 116.111,204.536 112.533,204.729 112.067 C 204.819 111.850,204.998 111.271,205.126 110.781 C 205.254 110.292,205.431 109.619,205.519 109.286 C 205.606 108.953,205.914 108.211,206.202 107.638 C 206.490 107.064,206.726 106.483,206.726 106.347 C 206.726 105.884,208.207 103.870,208.704 103.655 C 209.217 103.434,209.966 102.147,209.683 101.972 C 209.595 101.917,209.649 101.629,209.805 101.332 C 209.960 101.035,210.087 100.680,210.088 100.544 C 210.088 100.408,210.156 100.297,210.239 100.297 C 210.456 100.297,210.828 99.335,210.977 98.388 C 211.154 97.266,213.056 95.731,213.056 96.711 C 213.056 96.806,213.520 96.928,214.087 96.982 C 214.653 97.037,215.150 97.182,215.191 97.304 C 215.241 97.454,216.093 97.527,217.790 97.527 C 220.512 97.527,221.112 97.370,221.916 96.445 C 222.156 96.170,222.431 95.945,222.529 95.945 C 222.627 95.945,222.763 95.722,222.831 95.450 C 222.899 95.178,223.041 94.955,223.147 94.955 C 223.252 94.955,223.395 94.599,223.465 94.164 C 223.560 93.572,223.684 93.373,223.957 93.373 C 224.295 93.373,225.124 91.976,225.124 91.406 C 225.124 91.291,225.213 91.197,225.321 91.197 C 225.430 91.197,225.522 90.997,225.526 90.752 C 225.529 90.507,225.663 90.134,225.822 89.923 C 225.982 89.711,226.116 89.355,226.119 89.131 C 226.123 88.907,226.256 88.551,226.416 88.340 C 226.576 88.129,226.706 87.802,226.706 87.614 C 226.706 87.237,227.312 85.993,227.547 85.889 C 227.629 85.852,227.695 85.613,227.695 85.356 C 227.695 85.100,227.793 84.830,227.912 84.756 C 228.031 84.682,228.088 84.410,228.038 84.151 C 227.989 83.892,228.025 83.680,228.118 83.680 C 228.212 83.680,228.289 83.457,228.289 83.185 C 228.289 82.913,228.372 82.690,228.475 82.690 C 228.577 82.690,228.720 82.290,228.794 81.800 C 228.867 81.311,228.995 80.910,229.077 80.910 C 229.159 80.910,229.273 80.498,229.330 79.995 C 229.386 79.492,229.535 79.017,229.660 78.940 C 229.785 78.863,229.906 78.549,229.929 78.242 C 229.989 77.439,229.533 77.355,224.036 77.149 C 218.611 76.946,216.885 76.774,214.243 76.173 C 213.210 75.937,211.696 75.664,210.880 75.566 C 210.064 75.467,208.773 75.247,208.012 75.075 C 207.250 74.904,206.247 74.681,205.784 74.579 C 205.320 74.476,204.769 74.301,204.560 74.189 C 204.351 74.078,203.805 73.986,203.346 73.986 C 201.645 73.986,198.946 73.341,197.132 72.500 C 195.579 71.780,194.437 71.321,193.472 71.028 C 192.982 70.880,192.270 70.525,191.889 70.240 C 191.508 69.955,190.955 69.568,190.660 69.381 C 190.364 69.194,189.713 68.413,189.213 67.647 C 187.285 64.694,186.877 63.393,186.838 60.066 C 186.812 57.867,186.974 58.129,184.669 56.549 C 184.016 56.102,183.008 55.376,182.430 54.936 L 181.378 54.135 181.472 51.153 C 181.580 47.724,181.975 45.234,182.691 43.472 C 182.909 42.935,184.107 43.055,185.262 43.729 C 185.806 44.046,187.023 44.706,187.967 45.194 C 188.911 45.682,189.739 46.173,189.809 46.285 C 190.148 46.834,190.897 46.483,191.376 45.549 C 191.922 44.485,193.967 42.425,195.153 41.745 C 197.632 40.323,198.147 40.050,199.011 39.696 C 200.532 39.074,200.951 38.966,202.473 38.800 C 204.242 38.606,210.711 38.880,211.434 39.179 C 211.684 39.282,212.322 39.367,212.853 39.367 C 214.192 39.367,216.096 39.777,219.288 40.753 C 219.614 40.852,220.282 40.994,220.772 41.068 C 221.595 41.192,223.976 42.018,224.431 42.338 C 224.540 42.414,225.564 42.760,226.706 43.107 C 227.849 43.453,229.318 43.950,229.970 44.211 C 231.256 44.724,232.796 45.131,234.817 45.494 C 235.524 45.620,236.303 45.772,236.548 45.831 C 236.923 45.921,236.993 45.857,236.993 45.422 C 236.993 45.138,237.082 44.906,237.191 44.906 C 237.300 44.906,237.389 44.773,237.389 44.609 C 237.389 44.446,237.477 44.313,237.586 44.313 C 237.830 44.313,237.803 38.413,237.558 38.261 C 237.465 38.204,237.389 37.672,237.389 37.080 C 237.389 36.488,237.300 36.004,237.191 36.004 C 237.082 36.004,236.993 35.699,236.993 35.326 C 236.993 34.953,236.860 34.514,236.696 34.351 C 236.533 34.188,236.400 33.914,236.400 33.743 C 236.400 33.572,236.266 33.432,236.103 33.432 C 235.932 33.432,235.806 33.253,235.806 33.010 C 235.806 32.777,235.584 32.381,235.312 32.129 C 235.040 31.877,234.817 31.587,234.817 31.485 C 234.817 31.382,234.683 31.247,234.520 31.185 C 234.357 31.122,234.224 30.922,234.224 30.740 C 234.224 30.558,233.956 30.154,233.630 29.842 C 233.304 29.530,233.037 29.197,233.037 29.103 C 233.037 29.009,232.792 28.881,232.493 28.818 C 231.827 28.680,230.465 27.399,230.465 26.912 C 230.465 26.799,230.309 26.706,230.119 26.705 C 229.928 26.705,229.476 26.354,229.113 25.927 C 228.701 25.442,228.343 25.191,228.161 25.261 C 227.975 25.333,227.830 25.221,227.759 24.952 C 227.699 24.720,227.532 24.530,227.390 24.530 C 227.247 24.530,227.009 24.419,226.861 24.283 C 226.419 23.877,225.844 23.600,225.117 23.444 C 224.740 23.364,224.342 23.228,224.233 23.143 C 224.125 23.057,223.255 22.923,222.302 22.845 C 221.348 22.767,220.519 22.624,220.460 22.528 C 220.401 22.432,220.068 22.354,219.721 22.353 C 219.374 22.352,218.835 22.219,218.523 22.056 C 218.193 21.884,217.429 21.761,216.694 21.761 C 215.887 21.761,215.430 21.680,215.430 21.537 C 215.430 21.380,214.978 21.351,213.897 21.438 C 212.197 21.576,210.903 21.356,210.638 20.884 C 210.543 20.713,210.374 20.574,210.263 20.574 C 210.007 20.574,209.496 20.070,209.496 19.818 C 209.496 19.713,209.362 19.576,209.199 19.513 C 209.036 19.450,208.902 19.283,208.902 19.141 C 208.902 18.999,208.479 18.424,207.962 17.863 C 206.705 16.498,206.133 15.795,206.133 15.612 C 206.133 15.530,205.870 15.404,205.550 15.334 C 205.006 15.214,203.561 13.863,203.561 13.473 C 203.561 13.377,203.258 13.241,202.888 13.172 C 202.517 13.102,202.164 12.915,202.102 12.754 C 202.041 12.594,201.816 12.463,201.602 12.463 C 201.388 12.463,201.159 12.291,201.092 12.081 C 201.024 11.867,200.715 11.643,200.387 11.571 C 200.065 11.500,199.802 11.370,199.802 11.282 C 199.802 11.193,199.580 11.065,199.308 10.997 C 199.036 10.929,198.813 10.785,198.813 10.679 C 198.813 10.572,198.646 10.485,198.442 10.485 C 198.237 10.485,197.959 10.351,197.824 10.188 C 197.688 10.025,197.366 9.891,197.107 9.891 C 196.849 9.891,196.637 9.814,196.637 9.719 C 196.637 9.624,196.263 9.486,195.806 9.413 C 195.349 9.340,194.854 9.180,194.707 9.058 C 194.413 8.814,192.258 8.717,189.862 8.840 M202.275 39.703 C 198.625 40.188,194.003 43.255,192.693 46.063 L 192.211 47.096 192.620 47.505 C 193.331 48.216,194.132 47.867,196.696 45.730 C 199.611 43.300,203.967 43.019,212.265 44.727 C 212.755 44.827,213.867 44.996,214.738 45.102 C 215.608 45.208,216.632 45.386,217.013 45.497 C 217.394 45.609,218.506 45.788,219.486 45.895 C 222.389 46.212,223.426 46.418,225.768 47.147 C 226.991 47.528,228.437 47.899,228.981 47.972 C 230.689 48.199,232.909 48.866,233.647 49.373 C 235.364 50.553,236.794 50.568,236.797 49.407 C 236.799 48.944,236.852 48.246,236.917 47.855 C 237.052 47.042,237.200 47.105,233.333 46.330 C 232.245 46.112,230.776 45.709,230.069 45.435 C 228.391 44.784,227.891 44.614,226.113 44.091 C 225.297 43.851,224.030 43.358,223.299 42.995 C 222.567 42.631,221.810 42.335,221.617 42.336 C 221.130 42.338,218.805 41.793,216.914 41.232 C 216.044 40.974,214.886 40.723,214.342 40.673 C 213.798 40.624,212.196 40.437,210.781 40.257 C 205.838 39.628,203.825 39.497,202.275 39.703 M202.760 47.849 C 199.431 47.982,199.567 47.941,197.646 49.407 C 194.799 51.580,192.551 58.436,193.465 62.158 C 194.357 65.786,195.763 67.773,197.923 68.459 C 198.684 68.700,199.797 69.140,200.396 69.436 C 202.640 70.546,206.114 71.457,209.496 71.822 C 210.638 71.945,212.062 72.135,212.661 72.244 C 217.609 73.145,218.699 73.300,222.255 73.603 C 223.670 73.723,225.313 73.948,225.907 74.102 C 227.558 74.530,230.368 74.474,231.134 73.999 C 231.842 73.559,233.858 70.160,234.719 67.953 C 235.483 65.995,236.119 64.308,236.397 63.501 C 236.735 62.521,236.896 57.469,236.621 56.459 C 236.129 54.652,235.361 54.031,231.949 52.683 C 231.078 52.339,229.787 51.799,229.080 51.483 C 225.652 49.953,222.473 49.214,217.787 48.857 C 216.417 48.753,214.592 48.482,213.732 48.255 C 211.946 47.784,208.028 47.639,202.760 47.849 M239.262 58.576 C 239.189 58.804,239.228 59.089,239.347 59.209 C 239.505 59.367,239.565 59.253,239.565 58.793 C 239.565 58.063,239.451 57.981,239.262 58.576 M187.999 59.856 C 187.812 60.343,188.078 63.521,188.372 64.319 C 189.338 66.938,190.036 65.413,189.498 61.858 C 189.204 59.913,188.393 58.830,187.999 59.856 M239.301 60.468 C 239.105 60.664,239.147 61.578,239.367 61.919 C 239.506 62.134,239.560 61.956,239.562 61.276 C 239.565 60.322,239.536 60.233,239.301 60.468 M238.994 64.045 C 239.019 65.253,239.106 65.135,239.213 63.749 C 239.249 63.286,239.209 62.908,239.125 62.908 C 239.040 62.908,238.982 63.420,238.994 64.045 M238.576 66.073 C 238.576 66.291,238.665 66.469,238.773 66.469 C 238.882 66.469,238.971 66.291,238.971 66.073 C 238.971 65.856,238.882 65.678,238.773 65.678 C 238.665 65.678,238.576 65.856,238.576 66.073 M237.985 68.497 C 237.988 68.856,238.025 68.885,238.180 68.645 C 238.428 68.261,238.428 68.051,238.180 68.051 C 238.071 68.051,237.984 68.252,237.985 68.497 M236.639 71.816 C 236.354 72.273,236.340 72.404,236.574 72.404 C 236.734 72.404,237.043 71.597,236.928 71.482 C 236.901 71.455,236.771 71.605,236.639 71.816 M365.183 93.571 C 365.183 93.680,365.014 93.769,364.808 93.769 C 364.602 93.769,364.224 93.990,363.967 94.260 C 363.711 94.530,363.397 94.752,363.268 94.754 C 363.140 94.756,362.914 94.869,362.765 95.005 C 362.372 95.366,361.771 95.741,361.375 95.875 C 361.184 95.938,361.029 96.068,361.029 96.163 C 361.029 96.258,360.673 96.393,360.237 96.462 C 359.802 96.532,359.446 96.655,359.446 96.736 C 359.446 96.817,359.090 96.940,358.655 97.010 C 358.220 97.079,357.864 97.215,357.864 97.310 C 357.864 97.406,357.641 97.540,357.369 97.608 C 357.097 97.677,356.874 97.820,356.874 97.927 C 356.874 98.033,356.474 98.121,355.984 98.121 C 355.495 98.121,355.094 98.198,355.094 98.293 C 355.094 98.388,354.653 98.524,354.113 98.595 C 353.573 98.667,353.085 98.802,353.027 98.895 C 352.970 98.988,352.534 99.122,352.059 99.194 C 351.584 99.265,351.019 99.487,350.804 99.688 C 350.588 99.889,350.042 100.116,349.589 100.192 C 349.136 100.269,348.722 100.402,348.668 100.489 C 348.615 100.576,348.147 100.710,347.629 100.788 C 347.110 100.865,346.642 100.987,346.588 101.058 C 346.451 101.235,344.531 101.879,344.138 101.879 C 343.962 101.879,343.818 101.957,343.818 102.052 C 343.818 102.147,343.462 102.281,343.027 102.351 C 342.591 102.421,342.235 102.565,342.235 102.673 C 342.235 102.780,342.099 102.868,341.932 102.868 C 341.766 102.868,341.578 103.002,341.516 103.165 C 341.453 103.328,341.281 103.462,341.134 103.462 C 340.769 103.462,339.157 105.052,338.991 105.575 C 338.918 105.807,338.727 106.047,338.568 106.108 C 338.409 106.169,338.279 106.350,338.279 106.511 C 338.279 106.671,338.114 106.919,337.912 107.061 C 337.710 107.203,337.481 107.520,337.404 107.765 C 337.326 108.009,337.180 108.210,337.079 108.210 C 336.977 108.210,336.894 108.343,336.894 108.506 C 336.894 108.930,334.794 108.909,333.927 108.477 C 333.130 108.079,318.051 108.180,317.646 108.586 C 317.526 108.705,316.778 108.803,315.984 108.803 C 315.190 108.803,314.540 108.870,314.540 108.952 C 314.541 109.033,313.962 109.070,313.255 109.034 C 312.421 108.991,311.968 109.043,311.968 109.182 C 311.968 109.310,311.531 109.397,310.880 109.397 C 310.282 109.397,309.792 109.478,309.792 109.578 C 309.792 109.677,309.102 109.815,308.259 109.883 C 307.416 109.952,306.582 110.087,306.406 110.183 C 306.230 110.278,305.451 110.419,304.675 110.496 C 303.899 110.572,303.264 110.712,303.264 110.807 C 303.264 110.902,303.042 110.979,302.770 110.979 C 302.498 110.979,302.275 111.061,302.275 111.161 C 302.275 111.261,301.696 111.405,300.989 111.481 C 300.282 111.557,299.703 111.690,299.703 111.778 C 299.703 111.865,299.430 111.997,299.096 112.070 C 298.763 112.143,298.251 112.328,297.959 112.480 C 297.667 112.633,297.317 112.758,297.181 112.758 C 297.045 112.759,296.934 112.849,296.934 112.957 C 296.934 113.066,296.711 113.155,296.439 113.155 C 296.167 113.155,295.945 113.234,295.945 113.331 C 295.945 113.427,295.546 113.566,295.059 113.639 C 294.572 113.712,294.128 113.845,294.072 113.936 C 294.016 114.026,293.658 114.158,293.276 114.230 C 292.894 114.302,292.582 114.435,292.582 114.527 C 292.582 114.618,292.337 114.741,292.038 114.800 C 290.965 115.011,289.711 115.427,289.578 115.616 C 289.491 115.738,289.275 115.725,288.984 115.582 C 288.333 115.261,287.579 115.048,287.290 115.103 C 287.154 115.130,287.043 115.058,287.043 114.944 C 287.043 114.831,286.864 114.738,286.647 114.738 C 286.429 114.738,286.251 114.655,286.251 114.554 C 286.251 114.453,285.739 114.308,285.114 114.231 C 284.488 114.154,283.925 114.011,283.862 113.914 C 283.800 113.817,282.709 113.682,281.439 113.614 C 280.169 113.546,279.130 113.415,279.130 113.323 C 279.130 113.231,278.818 113.155,278.437 113.155 C 278.054 113.155,277.745 113.055,277.745 112.931 C 277.745 112.784,277.473 112.744,276.954 112.814 C 276.518 112.872,276.162 112.839,276.162 112.741 C 276.162 112.642,275.814 112.562,275.387 112.562 C 274.961 112.562,274.581 112.466,274.542 112.349 C 274.503 112.232,273.894 112.086,273.190 112.023 C 272.485 111.961,271.846 111.812,271.768 111.692 C 271.668 111.538,268.414 111.462,260.733 111.433 C 249.408 111.390,249.258 111.379,249.258 110.598 C 249.258 110.481,249.036 110.386,248.764 110.386 C 248.492 110.386,248.269 110.297,248.269 110.188 C 248.269 110.079,248.095 109.990,247.882 109.990 C 247.670 109.990,247.291 109.786,247.041 109.535 C 246.791 109.285,246.431 109.021,246.241 108.948 C 246.051 108.875,245.895 108.728,245.895 108.621 C 245.895 108.513,245.584 108.367,245.203 108.296 C 244.822 108.224,244.510 108.096,244.510 108.012 C 244.510 107.927,244.197 107.799,243.814 107.727 C 243.430 107.655,243.008 107.423,242.876 107.211 C 242.743 106.999,242.498 106.825,242.331 106.825 C 242.163 106.825,241.874 106.647,241.688 106.429 C 241.502 106.212,241.224 106.034,241.072 106.034 C 240.919 106.034,240.744 105.904,240.684 105.746 C 240.541 105.373,239.080 104.671,238.132 104.519 C 237.723 104.454,237.389 104.334,237.389 104.253 C 237.389 104.172,237.033 104.049,236.597 103.979 C 236.162 103.910,235.806 103.765,235.806 103.657 C 235.806 103.550,235.589 103.462,235.323 103.462 C 235.058 103.462,234.785 103.373,234.718 103.264 C 234.645 103.145,233.302 103.066,231.355 103.066 C 229.408 103.066,228.066 103.145,227.992 103.264 C 227.921 103.379,226.809 103.462,225.326 103.462 C 223.467 103.462,222.760 103.528,222.700 103.709 C 222.588 104.043,217.166 104.022,217.055 103.687 C 216.965 103.417,211.474 103.365,211.474 103.634 C 211.474 103.729,211.054 103.853,210.541 103.911 C 210.027 103.969,209.575 104.114,209.535 104.234 C 209.495 104.353,209.359 104.454,209.232 104.459 C 208.579 104.480,206.771 108.213,205.930 111.276 C 205.691 112.146,205.202 113.749,204.843 114.837 C 203.869 117.788,203.132 122.309,203.167 125.124 C 203.175 125.776,203.123 127.178,203.051 128.239 C 202.715 133.195,204.403 139.430,207.267 143.818 C 208.329 145.445,212.979 150.345,214.318 151.248 C 214.631 151.459,215.120 151.815,215.406 152.038 C 216.559 152.940,221.548 156.083,221.827 156.083 C 221.890 156.083,222.261 156.300,222.652 156.566 C 223.043 156.831,223.692 157.155,224.095 157.287 C 224.497 157.418,224.892 157.624,224.972 157.744 C 225.052 157.864,225.119 157.673,225.121 157.319 C 225.122 156.966,225.213 156.677,225.321 156.677 C 225.430 156.677,225.519 156.506,225.519 156.297 C 225.519 155.896,226.112 154.644,226.354 154.536 C 226.432 154.500,226.553 154.167,226.623 153.794 C 226.693 153.421,226.819 153.116,226.904 153.116 C 226.989 153.116,227.116 152.804,227.188 152.423 C 227.259 152.043,227.403 151.731,227.506 151.731 C 227.610 151.731,227.695 151.553,227.695 151.335 C 227.695 151.118,227.775 150.940,227.872 150.940 C 227.969 150.940,228.108 150.699,228.182 150.406 C 228.256 150.112,228.522 149.681,228.774 149.447 C 229.026 149.214,229.293 148.831,229.367 148.597 C 229.442 148.362,229.585 148.170,229.687 148.170 C 229.788 148.170,229.871 148.037,229.871 147.873 C 229.871 147.710,229.951 147.577,230.048 147.577 C 230.145 147.577,230.282 147.347,230.353 147.065 C 230.498 146.486,230.989 145.920,231.508 145.733 C 231.701 145.664,231.918 145.454,231.990 145.265 C 232.268 144.539,232.729 144.214,233.476 144.214 C 233.887 144.214,234.224 144.125,234.224 144.016 C 234.224 143.907,234.357 143.818,234.520 143.818 C 234.683 143.818,234.817 143.729,234.817 143.620 C 234.817 143.511,235.034 143.422,235.300 143.422 C 235.565 143.422,235.838 143.511,235.905 143.620 C 235.972 143.729,236.245 143.818,236.510 143.818 C 236.776 143.818,236.993 143.729,236.993 143.620 C 236.993 143.501,237.784 143.422,238.971 143.422 C 240.158 143.422,240.950 143.501,240.950 143.620 C 240.950 143.733,241.543 143.818,242.334 143.818 C 243.126 143.818,243.719 143.903,243.719 144.016 C 243.719 144.125,244.164 144.214,244.708 144.214 C 245.252 144.214,245.697 144.125,245.697 144.016 C 245.697 143.906,246.225 143.818,246.884 143.818 C 247.537 143.818,248.071 143.738,248.071 143.640 C 248.071 143.541,248.605 143.399,249.258 143.323 C 249.911 143.248,250.445 143.115,250.445 143.028 C 250.445 142.941,251.157 142.807,252.028 142.730 C 252.898 142.653,253.610 142.510,253.610 142.413 C 253.610 142.315,253.996 142.235,254.468 142.235 C 254.939 142.235,255.384 142.176,255.457 142.104 C 255.529 142.031,256.158 141.992,256.855 142.018 C 257.587 142.044,258.176 141.975,258.251 141.853 C 258.323 141.737,258.732 141.642,259.161 141.642 C 259.590 141.642,259.941 141.563,259.941 141.467 C 259.941 141.371,260.430 141.231,261.029 141.156 C 261.627 141.081,262.117 140.945,262.117 140.854 C 262.117 140.763,262.873 140.625,263.798 140.548 C 264.723 140.471,265.480 140.330,265.480 140.234 C 265.480 140.138,265.964 140.059,266.556 140.059 C 267.148 140.059,267.680 139.982,267.739 139.887 C 267.797 139.793,268.737 139.652,269.828 139.575 C 270.918 139.497,271.810 139.365,271.810 139.282 C 271.810 139.198,272.538 139.073,273.428 139.004 C 274.318 138.935,275.097 138.800,275.159 138.702 C 275.221 138.605,275.650 138.462,276.112 138.385 C 276.574 138.308,277.002 138.163,277.063 138.064 C 277.124 137.965,277.570 137.883,278.053 137.883 C 278.536 137.883,278.932 137.803,278.932 137.705 C 278.932 137.607,279.954 137.463,281.204 137.385 C 282.454 137.307,283.434 137.175,283.383 137.092 C 283.331 137.009,284.134 136.878,285.166 136.800 C 286.198 136.723,287.092 136.579,287.153 136.480 C 287.214 136.381,287.436 136.301,287.648 136.301 C 287.859 136.301,288.032 136.220,288.032 136.121 C 288.032 136.023,288.477 135.881,289.021 135.806 C 289.565 135.731,290.010 135.596,290.010 135.507 C 290.010 135.417,290.277 135.284,290.603 135.213 C 290.930 135.141,291.197 135.000,291.197 134.900 C 291.197 134.644,292.533 134.672,292.619 134.931 C 292.658 135.048,293.242 135.193,293.917 135.254 C 294.591 135.316,295.103 135.431,295.053 135.511 C 295.004 135.591,295.583 135.718,296.340 135.792 C 297.097 135.867,297.768 136.012,297.831 136.114 C 297.894 136.217,298.336 136.301,298.813 136.301 C 299.290 136.301,299.729 136.380,299.788 136.476 C 299.848 136.573,300.232 136.714,300.641 136.791 C 301.050 136.867,301.510 137.033,301.663 137.159 C 302.037 137.467,306.681 137.458,307.054 137.148 C 307.203 137.025,308.414 136.860,309.745 136.782 C 311.077 136.704,312.166 136.564,312.166 136.470 C 312.166 136.377,312.737 136.301,313.436 136.301 C 314.134 136.301,314.735 136.215,314.771 136.111 C 314.807 136.006,315.571 135.860,316.469 135.786 C 317.366 135.711,318.101 135.586,318.101 135.507 C 318.101 135.427,318.724 135.301,319.486 135.226 C 320.247 135.151,320.870 135.019,320.870 134.932 C 320.870 134.844,321.331 134.719,321.894 134.652 C 322.457 134.585,323.009 134.439,323.120 134.328 C 323.232 134.216,323.484 134.125,323.680 134.125 C 323.875 134.125,324.036 134.042,324.036 133.941 C 324.036 133.840,324.525 133.696,325.124 133.622 C 325.722 133.547,326.212 133.416,326.212 133.332 C 326.212 133.248,326.449 133.119,326.740 133.046 C 327.031 132.973,327.485 132.743,327.749 132.535 C 328.014 132.327,328.534 132.100,328.905 132.030 C 329.276 131.961,329.625 131.830,329.680 131.740 C 329.736 131.650,330.180 131.516,330.667 131.443 C 331.154 131.370,331.553 131.231,331.553 131.135 C 331.553 131.038,331.712 130.959,331.907 130.959 C 332.305 130.959,334.253 130.304,334.455 130.102 C 334.527 130.029,334.832 129.970,335.133 129.970 C 335.433 129.970,335.799 129.850,335.947 129.703 C 336.094 129.555,336.635 129.372,337.148 129.295 C 337.661 129.218,338.081 129.071,338.081 128.969 C 338.081 128.867,338.304 128.783,338.576 128.783 C 338.848 128.783,339.070 128.713,339.070 128.628 C 339.070 128.542,339.226 128.459,339.416 128.443 C 340.138 128.381,340.955 128.123,341.090 127.913 C 341.186 127.765,343.075 127.676,346.976 127.635 C 350.402 127.599,352.720 127.499,352.720 127.387 C 352.720 127.279,353.955 127.201,355.676 127.201 C 357.501 127.201,358.680 127.122,358.758 126.996 C 358.842 126.861,359.663 126.837,361.174 126.928 C 362.886 127.030,363.428 127.007,363.323 126.836 C 363.220 126.670,363.644 126.607,364.875 126.607 C 365.806 126.607,366.568 126.529,366.568 126.433 C 366.568 126.337,367.235 126.196,368.051 126.119 C 368.867 126.043,369.535 125.906,369.535 125.817 C 369.535 125.727,369.891 125.593,370.326 125.519 C 370.762 125.446,371.118 125.304,371.118 125.205 C 371.118 125.106,371.429 125.025,371.810 125.025 C 372.191 125.025,372.502 124.930,372.502 124.815 C 372.502 124.700,372.583 124.656,372.682 124.717 C 372.906 124.855,374.929 124.352,374.774 124.197 C 374.711 124.134,375.087 124.019,375.609 123.941 C 376.131 123.863,376.609 123.716,376.672 123.615 C 376.734 123.514,377.246 123.377,377.809 123.310 C 378.372 123.244,378.833 123.113,378.833 123.019 C 378.833 122.925,379.055 122.849,379.327 122.849 C 379.599 122.849,379.822 122.770,379.822 122.674 C 379.822 122.577,380.314 122.437,380.916 122.362 C 381.981 122.229,385.163 120.809,385.163 120.467 C 385.163 120.380,385.430 120.250,385.757 120.178 C 386.083 120.106,386.350 119.967,386.350 119.869 C 386.350 119.771,386.573 119.635,386.845 119.567 C 387.117 119.499,387.339 119.363,387.339 119.266 C 387.339 119.169,387.435 119.090,387.552 119.090 C 387.669 119.090,388.032 118.823,388.359 118.497 C 388.685 118.170,389.038 117.903,389.143 117.903 C 389.355 117.903,389.482 117.810,390.554 116.873 C 390.962 116.516,391.296 116.112,391.296 115.976 C 391.296 115.839,391.385 115.727,391.494 115.727 C 391.602 115.727,391.691 115.549,391.691 115.331 C 391.691 115.114,391.770 114.936,391.867 114.936 C 391.963 114.936,392.102 114.535,392.176 114.045 C 392.249 113.556,392.386 113.155,392.479 113.155 C 392.573 113.155,392.708 112.888,392.779 112.562 C 392.851 112.235,392.978 111.968,393.061 111.968 C 393.144 111.968,393.379 111.657,393.585 111.276 C 393.790 110.895,394.019 110.584,394.095 110.584 C 394.170 110.584,394.290 110.317,394.362 109.990 C 394.434 109.664,394.574 109.397,394.674 109.397 C 394.775 109.397,394.857 108.551,394.857 107.517 C 394.857 106.396,394.777 105.638,394.659 105.638 C 394.550 105.638,394.461 105.415,394.461 105.143 C 394.461 104.871,394.370 104.649,394.258 104.649 C 394.147 104.649,393.968 104.418,393.860 104.135 C 393.753 103.853,393.494 103.577,393.285 103.522 C 393.077 103.468,392.858 103.298,392.799 103.146 C 392.740 102.992,392.425 102.868,392.093 102.868 C 391.763 102.868,391.494 102.790,391.494 102.694 C 391.494 102.439,388.897 102.193,388.747 102.434 C 388.489 102.848,386.258 102.419,386.190 101.943 C 386.112 101.394,384.434 99.703,383.967 99.703 C 383.772 99.703,383.578 99.596,383.534 99.466 C 383.479 99.299,382.526 99.203,380.353 99.145 C 378.646 99.099,377.250 98.983,377.250 98.888 C 377.250 98.597,370.773 98.670,370.655 98.961 C 370.582 99.140,370.509 99.147,370.391 98.988 C 370.301 98.867,370.005 98.699,369.733 98.615 C 369.120 98.426,368.949 98.177,368.945 97.466 C 368.943 97.147,368.858 96.962,368.744 97.033 C 368.632 97.102,368.546 96.936,368.546 96.649 C 368.546 96.370,368.468 96.142,368.374 96.142 C 368.279 96.142,368.141 95.608,368.067 94.955 C 367.954 93.956,367.872 93.769,367.547 93.769 C 367.335 93.769,367.161 93.680,367.161 93.571 C 367.161 93.462,366.716 93.373,366.172 93.373 C 365.628 93.373,365.183 93.462,365.183 93.571 M172.008 102.671 C 171.941 102.779,171.446 102.868,170.910 102.868 C 169.966 102.868,168.348 103.398,168.348 103.706 C 168.348 103.790,168.167 103.858,167.946 103.858 C 167.725 103.858,167.493 103.991,167.431 104.154 C 167.368 104.318,167.232 104.451,167.129 104.451 C 166.784 104.451,165.183 105.250,165.183 105.422 C 165.183 105.515,165.027 105.644,164.837 105.708 C 164.646 105.772,164.357 105.902,164.194 105.997 C 163.500 106.401,163.055 106.585,162.447 106.719 C 162.092 106.797,161.695 107.031,161.565 107.238 C 161.435 107.446,161.170 107.616,160.975 107.616 C 160.780 107.616,160.571 107.744,160.511 107.901 C 160.451 108.057,160.143 108.243,159.825 108.312 C 159.508 108.382,159.248 108.521,159.248 108.621 C 159.248 108.721,159.160 108.803,159.052 108.803 C 158.596 108.803,157.259 109.517,157.166 109.810 C 157.110 109.985,156.844 110.229,156.574 110.351 C 156.304 110.474,156.083 110.666,156.083 110.777 C 156.083 110.888,155.950 110.979,155.786 110.979 C 155.623 110.979,155.490 111.060,155.490 111.158 C 155.490 111.257,155.045 111.399,154.500 111.474 C 153.956 111.549,153.511 111.680,153.511 111.767 C 153.511 111.853,153.111 111.983,152.621 112.057 C 152.132 112.130,151.731 112.265,151.731 112.356 C 151.731 112.447,151.107 112.584,150.345 112.661 C 149.583 112.737,148.910 112.880,148.850 112.978 C 148.790 113.075,148.211 113.155,147.565 113.155 C 146.919 113.155,146.390 113.233,146.390 113.328 C 146.390 113.423,145.321 113.564,144.016 113.642 C 142.710 113.720,141.642 113.856,141.642 113.944 C 141.642 114.033,140.596 114.170,139.318 114.249 C 138.039 114.328,136.949 114.456,136.894 114.533 C 136.840 114.610,135.638 114.770,134.224 114.888 C 131.453 115.118,130.387 115.287,130.059 115.545 C 129.945 115.636,129.478 115.769,129.021 115.843 C 128.564 115.916,128.190 116.047,128.190 116.134 C 128.190 116.221,127.700 116.353,127.102 116.428 C 126.503 116.503,126.014 116.643,126.014 116.739 C 126.014 116.835,125.747 116.914,125.420 116.914 C 125.094 116.914,124.827 116.990,124.827 117.084 C 124.827 117.177,124.276 117.311,123.602 117.381 C 122.928 117.452,122.327 117.586,122.266 117.680 C 122.206 117.774,121.555 117.914,120.821 117.991 C 120.087 118.069,119.486 118.193,119.486 118.268 C 119.486 118.405,118.876 118.769,118.249 119.006 C 118.059 119.077,117.903 119.215,117.903 119.311 C 117.903 119.407,117.191 119.486,116.320 119.486 C 115.397 119.486,114.738 119.403,114.738 119.288 C 114.738 119.179,114.444 119.090,114.085 119.090 C 113.726 119.090,113.336 118.994,113.219 118.877 C 113.081 118.738,112.394 118.705,111.251 118.781 C 110.285 118.846,108.628 118.947,107.567 119.007 C 106.506 119.067,105.638 119.191,105.638 119.281 C 105.638 119.372,104.614 119.511,103.363 119.589 C 102.112 119.667,101.088 119.797,101.088 119.878 C 101.088 120.121,97.484 120.313,93.235 120.297 C 90.803 120.288,89.191 120.359,89.118 120.477 C 89.052 120.585,88.112 120.673,87.031 120.673 C 85.949 120.673,85.064 120.752,85.064 120.850 C 85.064 120.948,83.284 121.093,81.108 121.172 C 78.932 121.252,77.151 121.394,77.151 121.489 C 77.151 121.584,74.228 121.662,70.654 121.662 L 64.157 121.662 61.505 118.995 C 60.046 117.528,58.779 116.326,58.690 116.324 C 58.601 116.322,58.394 116.187,58.231 116.024 C 58.068 115.861,57.762 115.727,57.553 115.727 C 57.343 115.727,57.171 115.650,57.171 115.555 C 57.171 115.318,55.029 114.738,54.153 114.738 C 53.759 114.738,53.386 114.658,53.326 114.560 C 53.265 114.462,52.103 114.318,50.742 114.239 C 49.382 114.161,48.269 114.026,48.269 113.939 C 48.269 113.852,47.379 113.717,46.291 113.640 C 45.203 113.563,44.313 113.422,44.313 113.328 C 44.313 113.233,43.339 113.155,42.148 113.155 C 40.958 113.155,39.933 113.073,39.871 112.973 C 39.809 112.873,39.158 112.733,38.425 112.663 C 37.692 112.593,36.914 112.458,36.696 112.362 C 36.479 112.267,35.833 112.130,35.262 112.060 C 34.691 111.989,34.224 111.862,34.224 111.777 C 34.224 111.693,33.867 111.566,33.432 111.497 C 32.997 111.427,32.641 111.282,32.641 111.175 C 32.641 111.067,32.515 110.979,32.361 110.979 C 32.207 110.979,32.047 110.880,32.007 110.759 C 31.758 110.012,27.695 110.392,27.695 111.163 C 27.695 111.279,27.598 111.375,27.480 111.375 C 27.334 111.375,27.286 112.074,27.332 113.554 C 27.394 115.590,27.373 115.740,27.003 115.856 C 26.785 115.924,26.411 116.190,26.172 116.447 C 25.788 116.858,25.557 116.914,24.243 116.914 C 23.422 116.914,22.750 116.991,22.750 117.084 C 22.750 117.178,22.246 117.306,21.631 117.370 C 21.015 117.433,20.459 117.567,20.394 117.667 C 20.330 117.768,19.765 117.912,19.139 117.989 C 18.514 118.066,18.002 118.212,18.002 118.313 C 18.002 118.414,17.601 118.497,17.112 118.497 C 16.622 118.497,16.222 118.571,16.222 118.661 C 16.222 118.752,16.110 118.836,15.974 118.849 C 15.018 118.935,14.045 119.170,14.045 119.314 C 14.045 119.408,13.874 119.486,13.664 119.486 C 13.454 119.486,13.149 119.619,12.986 119.782 C 12.823 119.946,12.559 120.079,12.401 120.079 C 12.243 120.079,12.067 120.257,12.010 120.474 C 11.953 120.691,11.743 120.928,11.542 121.000 C 10.937 121.218,10.523 121.768,10.184 122.802 L 9.864 123.783 8.047 123.919 C 7.049 123.994,6.202 124.140,6.166 124.243 C 6.129 124.347,5.884 124.431,5.621 124.431 C 5.359 124.431,5.143 124.511,5.143 124.608 C 5.143 124.705,4.909 124.843,4.624 124.915 C 3.516 125.192,2.374 126.802,2.374 128.084 C 2.374 128.577,2.285 128.981,2.176 128.981 C 2.067 128.981,1.978 129.248,1.978 129.575 C 1.978 129.901,2.067 130.168,2.176 130.168 C 2.285 130.168,2.374 130.509,2.374 130.926 C 2.374 131.344,2.441 131.752,2.522 131.833 C 2.604 131.915,2.671 132.045,2.671 132.122 C 2.671 132.200,3.027 132.627,3.462 133.071 C 3.897 133.515,4.463 134.112,4.718 134.397 C 4.974 134.682,5.264 134.865,5.361 134.805 C 5.459 134.744,5.539 134.887,5.539 135.121 C 5.539 135.606,6.108 136.717,6.479 136.953 C 6.615 137.040,6.726 137.238,6.726 137.393 C 6.726 137.804,8.426 139.438,9.003 139.583 C 9.274 139.651,9.496 139.786,9.496 139.883 C 9.496 139.980,9.718 140.059,9.990 140.059 C 10.262 140.059,10.485 140.148,10.485 140.257 C 10.485 140.366,10.596 140.458,10.732 140.462 C 10.868 140.465,11.335 140.640,11.771 140.851 C 12.206 141.061,12.718 141.236,12.908 141.240 C 13.098 141.243,13.254 141.335,13.254 141.444 C 13.254 141.553,13.472 141.642,13.737 141.642 C 14.003 141.642,14.270 141.723,14.332 141.823 C 14.393 141.922,14.821 142.066,15.283 142.144 C 15.745 142.221,16.174 142.364,16.236 142.463 C 16.299 142.561,16.833 142.696,17.423 142.762 C 18.014 142.829,18.586 142.948,18.694 143.028 C 18.803 143.108,20.361 143.234,22.156 143.309 C 23.952 143.385,25.450 143.530,25.486 143.632 C 25.523 143.734,26.250 143.818,27.102 143.818 C 27.954 143.818,28.681 143.900,28.717 144.000 C 28.801 144.229,36.853 144.521,37.199 144.308 C 37.339 144.221,38.009 144.170,38.687 144.195 C 39.396 144.220,39.977 144.150,40.051 144.029 C 40.123 143.913,40.710 143.818,41.357 143.818 C 42.003 143.818,42.532 143.740,42.532 143.646 C 42.532 143.551,43.600 143.409,44.906 143.332 C 46.212 143.254,47.280 143.120,47.280 143.035 C 47.280 142.950,48.170 142.817,49.258 142.740 C 50.346 142.662,51.236 142.517,51.236 142.417 C 51.236 142.317,51.771 142.235,52.423 142.235 C 53.163 142.235,53.610 142.152,53.610 142.015 C 53.610 141.866,53.898 141.838,54.500 141.928 C 55.080 142.015,55.391 141.989,55.391 141.852 C 55.391 141.736,55.695 141.642,56.067 141.642 C 56.438 141.642,56.772 141.555,56.808 141.448 C 56.845 141.341,57.787 141.194,58.902 141.121 C 60.017 141.049,60.930 140.913,60.930 140.821 C 60.930 140.593,64.165 140.606,64.402 140.834 C 64.505 140.934,66.484 141.080,68.798 141.158 C 71.113 141.237,73.055 141.378,73.113 141.471 C 73.171 141.565,74.904 141.642,76.965 141.642 C 79.478 141.642,80.712 141.711,80.712 141.852 C 80.712 141.991,81.446 142.041,82.889 142.000 C 84.086 141.966,85.065 142.005,85.065 142.087 C 85.064 142.169,85.638 142.235,86.338 142.235 C 87.039 142.235,87.663 142.316,87.724 142.416 C 87.785 142.515,88.614 142.654,89.566 142.725 C 90.517 142.796,91.474 142.932,91.691 143.028 C 91.909 143.124,92.732 143.261,93.521 143.333 C 94.310 143.404,94.955 143.542,94.955 143.640 C 94.955 143.738,95.267 143.818,95.648 143.818 C 96.029 143.818,96.340 143.896,96.340 143.990 C 96.340 144.085,97.074 144.227,97.972 144.305 C 98.869 144.383,99.652 144.527,99.712 144.624 C 99.772 144.721,100.729 144.859,101.839 144.932 C 102.949 145.005,103.858 145.140,103.858 145.233 C 103.858 145.325,104.475 145.401,105.231 145.401 C 105.986 145.401,106.653 145.481,106.714 145.579 C 106.775 145.677,107.870 145.822,109.149 145.901 C 110.429 145.980,111.534 146.140,111.609 146.257 C 111.813 146.577,122.297 146.567,122.684 146.246 C 122.887 146.078,124.498 145.963,127.965 145.869 C 130.709 145.794,133.000 145.658,133.056 145.567 C 133.113 145.475,133.769 145.401,134.515 145.401 C 135.374 145.401,135.900 145.316,135.949 145.169 C 136.004 145.004,137.527 144.912,141.307 144.846 C 144.211 144.796,146.588 144.677,146.588 144.583 C 146.588 144.489,147.645 144.411,148.937 144.411 C 150.784 144.411,151.340 144.348,151.533 144.115 C 151.724 143.884,152.260 143.818,153.931 143.818 C 155.168 143.818,156.083 143.738,156.083 143.629 C 156.083 143.525,156.720 143.414,157.499 143.382 C 158.719 143.332,158.923 143.271,158.970 142.945 C 159.000 142.737,159.418 141.980,159.898 141.263 C 161.647 138.652,162.041 138.022,162.550 137.023 C 163.051 136.040,163.876 133.380,164.125 131.949 C 164.191 131.568,164.826 129.520,165.535 127.399 C 166.244 125.277,166.891 123.185,166.973 122.750 C 167.056 122.315,167.300 121.291,167.517 120.475 C 167.733 119.659,168.064 118.323,168.252 117.507 C 168.931 114.558,169.783 112.382,172.028 107.869 C 174.617 102.665,174.655 102.473,173.094 102.473 C 172.564 102.473,172.075 102.562,172.008 102.671 M201.136 133.383 C 200.867 134.063,200.451 135.235,200.212 135.987 C 199.548 138.069,198.902 139.191,197.459 140.763 C 196.735 141.552,195.759 142.690,195.289 143.292 C 194.820 143.894,193.949 144.771,193.353 145.240 C 192.757 145.709,191.716 146.545,191.040 147.098 C 187.739 149.798,182.371 150.726,177.943 149.363 C 177.181 149.128,176.335 148.891,176.063 148.836 C 171.931 147.994,166.241 141.097,165.848 136.454 C 165.625 133.816,165.299 133.846,163.788 136.643 C 163.096 137.924,162.237 139.393,161.878 139.909 C 161.520 140.425,161.227 140.916,161.227 141.001 C 161.227 141.086,160.949 141.493,160.610 141.904 C 160.271 142.315,160.045 142.702,160.107 142.764 C 160.169 142.826,160.001 143.198,159.734 143.591 C 159.467 143.984,159.248 144.418,159.248 144.556 C 159.248 144.694,159.159 144.807,159.050 144.807 C 158.942 144.807,158.853 144.941,158.853 145.104 C 158.853 145.267,158.764 145.401,158.655 145.401 C 158.546 145.401,158.457 145.535,158.457 145.699 C 158.457 145.864,158.279 146.150,158.061 146.337 C 157.844 146.523,157.666 146.878,157.666 147.126 C 157.666 147.374,157.577 147.577,157.468 147.577 C 157.359 147.577,157.270 147.888,157.270 148.269 C 157.270 148.650,157.188 148.961,157.088 148.961 C 156.988 148.961,156.847 149.228,156.775 149.555 C 156.704 149.881,156.573 150.148,156.484 150.148 C 156.396 150.148,156.263 150.392,156.188 150.690 C 156.113 150.989,155.970 151.283,155.871 151.344 C 155.771 151.406,155.632 152.008,155.561 152.682 C 155.491 153.356,155.357 153.907,155.264 153.907 C 155.170 153.907,155.094 154.067,155.094 154.263 C 155.094 154.459,154.983 154.730,154.847 154.866 C 154.430 155.283,154.368 163.637,154.778 164.048 C 154.952 164.221,155.094 164.459,155.094 164.575 C 155.094 164.692,155.179 164.787,155.283 164.787 C 155.387 164.787,155.528 165.121,155.597 165.529 C 155.666 165.937,155.848 166.552,156.002 166.894 C 156.155 167.237,156.281 167.660,156.281 167.834 C 156.281 168.008,156.370 168.150,156.479 168.150 C 156.588 168.150,156.679 168.351,156.683 168.595 C 156.686 168.840,156.820 169.213,156.980 169.425 C 157.139 169.636,157.270 170.014,157.270 170.265 C 157.270 170.517,157.349 170.722,157.445 170.722 C 157.542 170.722,157.681 171.121,157.754 171.608 C 157.827 172.095,157.959 172.538,158.047 172.592 C 158.135 172.647,158.267 173.146,158.341 173.702 C 158.415 174.258,158.560 174.883,158.664 175.091 C 158.768 175.300,158.947 175.655,159.062 175.881 C 159.176 176.106,159.322 176.730,159.386 177.265 C 159.449 177.801,159.568 178.239,159.649 178.239 C 159.730 178.239,159.857 178.640,159.930 179.130 C 160.004 179.619,160.135 180.020,160.222 180.020 C 160.309 180.020,160.435 180.480,160.501 181.043 C 160.568 181.606,160.714 182.158,160.826 182.270 C 160.937 182.381,161.029 182.633,161.029 182.829 C 161.029 183.025,161.111 183.185,161.212 183.185 C 161.313 183.185,161.457 183.675,161.532 184.273 C 161.607 184.871,161.737 185.361,161.822 185.361 C 161.907 185.361,162.040 186.073,162.117 186.944 C 162.194 187.814,162.337 188.526,162.434 188.526 C 162.532 188.526,162.611 188.971,162.611 189.515 C 162.611 190.059,162.689 190.504,162.784 190.504 C 162.878 190.504,163.016 191.039,163.090 191.691 L 163.224 192.878 192.789 192.878 C 222.222 192.878,222.354 192.877,222.354 192.483 C 222.354 192.265,222.260 192.087,222.145 192.087 C 222.029 192.087,221.991 191.996,222.060 191.885 C 222.195 191.667,221.751 190.504,221.533 190.504 C 221.461 190.504,221.341 190.059,221.266 189.515 C 221.191 188.971,221.059 188.570,220.973 188.623 C 220.887 188.676,220.756 188.322,220.683 187.836 C 220.610 187.350,220.467 186.901,220.364 186.838 C 220.262 186.774,220.178 186.557,220.178 186.355 C 220.178 186.153,220.074 185.953,219.947 185.910 C 219.638 185.807,219.659 178.577,219.968 178.474 C 220.085 178.435,220.178 177.882,220.178 177.234 C 220.178 176.590,220.254 176.063,220.347 176.063 C 220.441 176.063,220.579 175.242,220.655 174.239 C 220.730 173.235,220.864 172.367,220.951 172.310 C 221.039 172.253,221.173 171.639,221.250 170.947 C 221.327 170.254,221.473 169.520,221.575 169.315 C 221.677 169.110,221.842 168.777,221.942 168.575 C 222.042 168.373,222.185 167.795,222.261 167.289 C 222.337 166.784,222.470 166.370,222.556 166.370 C 222.642 166.370,222.774 165.925,222.849 165.381 C 222.923 164.837,223.055 164.392,223.141 164.392 C 223.227 164.392,223.359 163.902,223.434 163.304 C 223.508 162.705,223.652 162.216,223.753 162.216 C 223.854 162.216,223.937 162.000,223.937 161.738 C 223.937 161.475,224.041 161.225,224.169 161.182 C 224.298 161.139,224.439 160.578,224.487 159.915 L 224.573 158.726 222.806 157.815 C 221.835 157.314,220.601 156.635,220.065 156.307 C 219.529 155.978,218.600 155.418,218.002 155.063 C 213.709 152.516,208.642 147.888,206.449 144.510 C 206.025 143.858,205.513 143.082,205.312 142.787 C 205.110 142.493,204.946 142.156,204.946 142.039 C 204.946 141.922,204.733 141.407,204.474 140.894 C 203.698 139.360,202.676 135.894,202.472 134.109 C 202.197 131.694,201.873 131.518,201.136 133.383 M225.649 190.595 C 225.455 191.099,225.492 191.691,225.717 191.691 C 225.826 191.691,225.915 191.828,225.915 191.996 C 225.915 192.412,226.420 191.949,226.453 191.503 C 226.494 190.959,225.807 190.184,225.649 190.595 " stroke="none" fill="#fbfbfb" fill-rule="evenodd"></path><path id="path1" d="M190.356 8.841 C 190.546 8.890,190.858 8.890,191.048 8.841 C 191.239 8.791,191.083 8.750,190.702 8.750 C 190.321 8.750,190.166 8.791,190.356 8.841 M194.164 8.847 C 194.382 8.901,194.693 9.046,194.857 9.171 C 195.115 9.367,195.118 9.352,194.882 9.050 C 194.732 8.860,194.421 8.715,194.189 8.727 C 193.790 8.749,193.788 8.755,194.164 8.847 M187.438 9.100 C 187.107 9.242,187.147 9.272,187.685 9.284 C 188.039 9.291,188.328 9.209,188.328 9.100 C 188.328 8.865,187.985 8.865,187.438 9.100 M196.637 9.693 C 196.637 9.802,196.882 9.890,197.181 9.888 C 197.605 9.886,197.660 9.843,197.428 9.693 C 197.041 9.443,196.637 9.443,196.637 9.693 M185.064 10.577 C 184.738 10.845,184.567 11.067,184.684 11.071 C 184.801 11.075,185.105 10.856,185.361 10.584 C 185.951 9.955,185.827 9.953,185.064 10.577 M182.548 12.712 C 182.253 13.053,182.052 13.375,182.103 13.425 C 182.212 13.534,183.369 12.434,183.377 12.216 C 183.388 11.917,183.073 12.106,182.548 12.712 M203.759 13.809 C 203.759 14.052,205.122 15.320,205.249 15.193 C 205.310 15.132,205.056 14.760,204.684 14.366 C 204.015 13.656,203.759 13.502,203.759 13.809 M207.104 16.980 C 207.211 17.179,207.453 17.468,207.643 17.623 C 207.857 17.796,207.809 17.658,207.518 17.260 C 206.998 16.550,206.804 16.418,207.104 16.980 M177.487 19.399 C 177.252 19.775,177.263 19.789,177.637 19.589 C 177.859 19.470,178.042 19.287,178.042 19.182 C 178.042 18.858,177.754 18.970,177.487 19.399 M209.496 19.797 C 209.496 20.071,209.894 20.460,210.353 20.635 C 210.612 20.733,210.555 20.601,210.156 20.178 C 209.531 19.516,209.496 19.496,209.496 19.797 M211.869 21.365 C 212.218 21.590,213.342 21.590,214.045 21.365 C 214.393 21.254,214.098 21.202,213.056 21.190 C 212.031 21.178,211.664 21.233,211.869 21.365 M173.636 26.034 C 173.557 26.114,173.492 26.315,173.492 26.482 C 173.492 26.705,173.550 26.727,173.712 26.565 C 173.833 26.444,173.898 26.243,173.856 26.118 C 173.814 25.993,173.715 25.955,173.636 26.034 M230.465 27.011 C 230.465 27.271,231.610 28.443,232.146 28.733 C 232.514 28.932,232.521 28.921,232.245 28.571 C 231.374 27.467,230.465 26.671,230.465 27.011 M234.224 30.708 C 234.224 31.068,234.574 31.367,234.769 31.172 C 234.837 31.104,234.742 30.898,234.558 30.715 C 234.250 30.406,234.224 30.406,234.224 30.708 M235.813 32.987 C 235.809 33.254,235.925 33.432,236.103 33.432 C 236.268 33.432,236.400 33.608,236.400 33.828 C 236.400 34.045,236.489 34.224,236.597 34.224 C 236.938 34.224,236.813 33.752,236.307 33.136 C 235.845 32.572,235.820 32.564,235.813 32.987 M236.960 35.226 C 237.001 35.654,237.114 36.004,237.212 36.004 C 237.483 36.004,237.422 34.893,237.138 34.657 C 236.940 34.493,236.902 34.615,236.960 35.226 M237.389 37.146 C 237.389 37.702,237.482 38.214,237.596 38.285 C 237.736 38.371,237.759 38.072,237.668 37.357 C 237.491 35.972,237.389 35.895,237.389 37.146 M202.374 38.802 C 200.950 38.961,200.548 39.068,199.011 39.696 C 198.147 40.050,197.632 40.323,195.153 41.745 C 193.967 42.425,191.922 44.485,191.376 45.549 C 190.897 46.483,190.148 46.834,189.809 46.285 C 189.739 46.173,188.911 45.682,187.967 45.194 C 187.023 44.706,185.806 44.046,185.262 43.729 C 184.690 43.395,183.970 43.146,183.555 43.139 C 182.807 43.125,182.834 43.094,182.288 44.609 C 181.905 45.674,181.556 48.466,181.472 51.153 L 181.378 54.135 182.430 54.936 C 183.008 55.376,184.016 56.102,184.669 56.549 C 186.974 58.129,186.812 57.867,186.838 60.066 C 186.877 63.393,187.285 64.694,189.213 67.647 C 189.713 68.413,190.364 69.194,190.660 69.381 C 190.955 69.568,191.508 69.955,191.889 70.240 C 192.270 70.525,192.982 70.880,193.472 71.028 C 194.437 71.321,195.579 71.780,197.132 72.500 C 198.946 73.341,201.645 73.986,203.346 73.986 C 203.805 73.986,204.351 74.078,204.560 74.189 C 204.769 74.301,205.320 74.476,205.784 74.579 C 206.247 74.681,207.250 74.904,208.012 75.075 C 208.773 75.247,210.064 75.467,210.880 75.566 C 211.696 75.664,213.210 75.937,214.243 76.173 C 216.885 76.774,218.611 76.946,224.036 77.149 C 229.240 77.344,229.978 77.460,229.957 78.086 C 229.945 78.445,230.007 78.468,230.501 78.296 C 230.808 78.189,231.058 78.021,231.058 77.923 C 231.058 77.825,231.281 77.745,231.553 77.745 C 231.825 77.745,232.047 77.646,232.047 77.526 C 232.047 77.405,232.181 77.358,232.344 77.421 C 232.507 77.483,232.641 77.448,232.641 77.343 C 232.641 77.238,232.774 77.151,232.938 77.151 C 233.101 77.151,233.234 77.062,233.234 76.954 C 233.234 76.845,233.415 76.756,233.636 76.756 C 233.857 76.756,234.089 76.622,234.152 76.459 C 234.215 76.296,234.352 76.162,234.457 76.162 C 234.754 76.162,235.213 75.631,235.213 75.286 C 235.213 75.115,235.298 74.975,235.402 74.975 C 235.505 74.975,235.649 74.664,235.720 74.285 C 235.791 73.905,235.918 73.636,236.001 73.688 C 236.084 73.739,236.211 73.415,236.282 72.968 C 236.354 72.521,236.543 71.969,236.703 71.741 C 236.862 71.513,236.993 71.168,236.993 70.975 C 236.993 70.781,237.082 70.623,237.191 70.623 C 237.300 70.623,237.389 70.394,237.389 70.114 C 237.389 69.835,237.522 69.472,237.685 69.309 C 237.849 69.146,237.982 68.796,237.982 68.532 C 237.982 68.268,238.060 68.051,238.154 68.051 C 238.249 68.051,238.387 67.517,238.461 66.864 C 238.535 66.212,238.680 65.678,238.783 65.678 C 238.887 65.678,238.971 65.054,238.971 64.293 C 238.971 63.531,239.040 62.908,239.123 62.908 C 239.350 62.908,239.387 56.020,239.161 55.880 C 239.057 55.816,238.971 55.590,238.971 55.379 C 238.971 55.168,238.891 54.995,238.792 54.995 C 238.693 54.995,238.552 54.550,238.477 54.006 C 238.402 53.462,238.270 53.017,238.185 53.017 C 238.099 53.017,237.976 52.861,237.912 52.671 C 237.747 52.178,237.332 51.560,237.043 51.375 C 236.907 51.288,236.795 51.126,236.795 51.015 C 236.795 50.629,236.274 50.294,235.459 50.157 C 235.008 50.080,234.257 49.765,233.789 49.455 C 232.917 48.877,230.741 48.206,228.981 47.972 C 228.437 47.899,226.991 47.528,225.768 47.147 C 223.426 46.418,222.389 46.212,219.486 45.895 C 218.506 45.788,217.394 45.609,217.013 45.497 C 216.632 45.386,215.608 45.208,214.738 45.102 C 213.867 44.996,212.755 44.827,212.265 44.727 C 203.967 43.019,199.611 43.300,196.696 45.730 C 194.132 47.867,193.331 48.216,192.620 47.505 L 192.211 47.096 192.693 46.063 C 193.395 44.559,195.617 42.383,197.384 41.469 C 201.375 39.405,202.913 39.269,210.880 40.271 C 212.240 40.442,213.798 40.623,214.342 40.673 C 214.886 40.722,216.044 40.974,216.914 41.232 C 218.805 41.793,221.130 42.338,221.617 42.336 C 221.810 42.335,222.567 42.631,223.299 42.995 C 224.030 43.358,225.297 43.851,226.113 44.091 C 227.887 44.613,228.386 44.782,230.069 45.434 C 231.402 45.950,233.139 46.392,235.015 46.693 C 235.613 46.789,236.303 46.926,236.548 46.998 C 236.940 47.113,236.993 47.057,236.993 46.533 C 236.993 45.942,235.326 45.302,233.785 45.302 C 233.240 45.302,231.383 44.769,229.970 44.208 C 229.318 43.949,227.849 43.453,226.706 43.107 C 225.564 42.760,224.540 42.414,224.431 42.339 C 223.963 42.013,221.851 41.275,220.717 41.041 C 218.950 40.675,217.322 40.250,217.053 40.084 C 215.950 39.402,205.312 38.473,202.374 38.802 M237.711 39.793 C 237.639 40.181,237.656 40.708,237.751 40.963 C 237.912 41.400,237.931 41.385,238.055 40.722 C 238.128 40.333,238.110 39.806,238.016 39.551 C 237.854 39.114,237.836 39.129,237.711 39.793 M213.732 48.255 C 214.592 48.482,216.417 48.753,217.787 48.857 C 222.473 49.214,225.652 49.953,229.080 51.483 C 229.787 51.799,231.078 52.339,231.949 52.683 C 235.361 54.031,236.129 54.652,236.621 56.459 C 236.896 57.469,236.735 62.521,236.397 63.501 C 236.119 64.308,235.483 65.995,234.719 67.953 C 233.858 70.160,231.842 73.559,231.134 73.999 C 230.368 74.474,227.558 74.530,225.907 74.102 C 225.313 73.948,223.670 73.723,222.255 73.603 C 218.699 73.300,217.609 73.145,212.661 72.244 C 212.062 72.135,210.638 71.945,209.496 71.822 C 206.114 71.457,202.640 70.546,200.396 69.436 C 199.797 69.140,198.684 68.700,197.923 68.459 C 194.027 67.222,192.131 60.953,194.030 55.589 C 195.467 51.529,196.496 50.065,199.119 48.343 C 200.267 47.590,210.968 47.525,213.732 48.255 M188.999 59.990 C 189.607 60.943,189.940 65.045,189.443 65.458 C 188.825 65.971,188.155 64.319,187.993 61.884 C 187.841 59.581,188.248 58.813,188.999 59.990 M169.139 63.007 C 169.139 63.170,169.228 63.304,169.337 63.304 C 169.446 63.304,169.535 63.170,169.535 63.007 C 169.535 62.844,169.446 62.710,169.337 62.710 C 169.228 62.710,169.139 62.844,169.139 63.007 M168.653 67.840 C 168.494 68.098,168.640 77.311,168.806 77.477 C 168.881 77.552,168.942 75.373,168.942 72.634 C 168.942 67.879,168.914 67.418,168.653 67.840 M226.946 86.851 C 226.661 87.308,226.646 87.438,226.881 87.438 C 227.040 87.438,227.350 86.631,227.235 86.516 C 227.208 86.489,227.078 86.640,226.946 86.851 M223.541 93.670 C 223.541 93.833,223.630 93.966,223.739 93.966 C 223.848 93.966,223.937 93.833,223.937 93.670 C 223.937 93.506,223.848 93.373,223.739 93.373 C 223.630 93.373,223.541 93.506,223.541 93.670 M356.182 97.923 L 355.589 98.074 356.231 98.097 C 356.585 98.110,356.874 98.032,356.874 97.923 C 356.874 97.814,356.852 97.736,356.825 97.748 C 356.798 97.761,356.508 97.840,356.182 97.923 M371.862 98.656 C 372.108 98.704,372.464 98.702,372.653 98.652 C 372.842 98.603,372.641 98.564,372.206 98.566 C 371.771 98.568,371.616 98.609,371.862 98.656 M378.734 98.912 C 378.658 99.034,379.011 99.109,379.662 99.107 C 380.413 99.105,380.628 99.049,380.415 98.912 C 380.025 98.660,378.890 98.660,378.734 98.912 M348.071 100.495 C 348.004 100.603,348.082 100.692,348.246 100.692 C 348.409 100.692,348.597 100.603,348.665 100.495 C 348.732 100.386,348.653 100.297,348.490 100.297 C 348.327 100.297,348.138 100.386,348.071 100.495 M174.195 102.455 C 174.134 102.554,174.137 102.775,174.203 102.946 C 174.274 103.130,173.390 105.131,172.033 107.860 C 169.784 112.381,168.931 114.557,168.252 117.507 C 168.064 118.323,167.733 119.659,167.517 120.475 C 167.300 121.291,167.056 122.315,166.973 122.750 C 166.891 123.185,166.244 125.277,165.535 127.399 C 164.826 129.520,164.191 131.568,164.125 131.949 C 163.717 134.297,162.626 137.221,161.619 138.665 C 160.012 140.971,158.864 142.919,159.020 143.075 C 159.297 143.352,160.138 143.167,160.138 142.829 C 160.138 142.666,160.383 142.212,160.682 141.821 C 160.982 141.430,161.227 141.051,161.227 140.978 C 161.227 140.906,161.520 140.425,161.878 139.909 C 162.237 139.393,163.096 137.924,163.788 136.643 C 165.299 133.846,165.625 133.816,165.848 136.454 C 166.241 141.097,171.931 147.994,176.063 148.836 C 176.335 148.891,177.181 149.128,177.943 149.363 C 182.371 150.726,187.739 149.798,191.040 147.098 C 191.716 146.545,192.757 145.709,193.353 145.240 C 193.949 144.771,194.820 143.894,195.289 143.292 C 195.759 142.690,196.735 141.552,197.459 140.763 C 198.902 139.191,199.548 138.069,200.212 135.987 C 201.635 131.521,202.130 131.109,202.472 134.109 C 202.676 135.894,203.698 139.360,204.474 140.894 C 204.733 141.407,204.946 141.922,204.946 142.039 C 204.946 142.156,205.110 142.493,205.312 142.787 C 205.513 143.082,206.025 143.858,206.449 144.510 C 208.642 147.888,213.709 152.516,218.002 155.063 C 218.600 155.418,219.529 155.978,220.065 156.307 C 220.601 156.635,221.825 157.309,222.785 157.804 C 224.146 158.506,224.531 158.797,224.533 159.125 C 224.536 159.469,224.571 159.491,224.728 159.248 C 225.234 158.466,224.966 157.542,224.163 157.302 C 223.743 157.176,223.072 156.851,222.671 156.578 C 222.269 156.306,221.890 156.083,221.827 156.083 C 221.548 156.083,216.559 152.940,215.406 152.038 C 215.120 151.815,214.631 151.459,214.318 151.248 C 212.979 150.345,208.329 145.445,207.267 143.818 C 204.403 139.430,202.715 133.195,203.051 128.239 C 203.123 127.178,203.175 125.776,203.167 125.124 C 203.132 122.309,203.869 117.788,204.843 114.837 C 205.202 113.749,205.691 112.146,205.930 111.276 C 206.542 109.047,207.669 106.387,208.452 105.323 C 209.101 104.440,209.057 103.361,208.390 103.811 C 208.050 104.040,206.726 106.050,206.726 106.336 C 206.726 106.478,206.490 107.064,206.202 107.638 C 205.914 108.211,205.606 108.953,205.519 109.286 C 205.431 109.619,205.254 110.292,205.126 110.781 C 204.998 111.271,204.819 111.850,204.729 112.067 C 204.536 112.533,203.429 116.111,203.168 117.112 C 202.815 118.467,202.389 121.393,202.274 123.244 C 202.093 126.173,201.488 129.788,201.000 130.861 C 200.654 131.619,199.959 133.640,199.572 135.012 C 198.963 137.169,197.922 138.931,196.081 140.924 C 195.164 141.917,194.328 142.908,194.224 143.126 C 194.119 143.343,193.521 143.907,192.894 144.378 C 192.266 144.849,191.538 145.427,191.275 145.663 C 187.746 148.838,184.002 149.796,179.130 148.772 C 174.572 147.813,172.498 146.653,170.401 143.889 C 168.097 140.852,166.826 138.507,166.586 136.852 C 166.487 136.168,166.310 135.361,166.193 135.058 C 166.050 134.691,166.041 134.230,166.164 133.673 C 166.388 132.659,166.763 130.004,166.965 127.992 C 167.238 125.279,167.614 123.231,168.219 121.167 C 168.378 120.623,168.656 119.510,168.835 118.694 C 169.509 115.638,170.967 111.596,172.154 109.496 C 172.462 108.952,173.036 107.839,173.431 107.023 C 173.826 106.207,174.412 105.007,174.733 104.357 C 175.758 102.278,175.759 102.275,174.982 102.275 C 174.610 102.275,174.256 102.356,174.195 102.455 M386.960 102.346 C 387.187 102.542,388.724 102.655,388.724 102.475 C 388.724 102.365,388.309 102.275,387.801 102.275 C 387.293 102.275,386.915 102.307,386.960 102.346 M394.888 107.171 C 394.869 107.909,394.939 108.408,395.061 108.408 C 395.368 108.408,395.522 107.843,395.291 107.563 C 395.178 107.428,395.049 107.007,395.003 106.626 C 394.950 106.186,394.908 106.383,394.888 107.171 M334.224 108.605 C 334.291 108.714,334.568 108.803,334.840 108.803 C 335.120 108.803,335.282 108.717,335.213 108.605 C 335.145 108.497,334.868 108.408,334.596 108.408 C 334.317 108.408,334.154 108.494,334.224 108.605 M156.790 109.905 C 156.404 110.291,156.394 110.406,156.760 110.265 C 156.915 110.206,157.090 110.031,157.150 109.876 C 157.290 109.510,157.175 109.520,156.790 109.905 M28.586 110.188 C 28.510 110.310,28.851 110.386,29.476 110.386 C 30.100 110.386,30.441 110.310,30.366 110.188 C 30.299 110.079,29.898 109.990,29.476 109.990 C 29.053 109.990,28.653 110.079,28.586 110.188 M301.088 110.682 C 301.088 111.078,300.989 111.375,300.857 111.375 C 300.730 111.375,300.673 111.421,300.730 111.478 C 300.787 111.535,300.980 111.526,301.159 111.457 C 301.516 111.320,301.632 109.990,301.286 109.990 C 301.177 109.990,301.088 110.302,301.088 110.682 M40.999 113.094 C 41.189 113.144,41.501 113.144,41.691 113.094 C 41.882 113.044,41.726 113.003,41.345 113.003 C 40.964 113.003,40.809 113.044,40.999 113.094 M279.130 113.353 C 279.130 113.462,279.308 113.551,279.525 113.551 C 279.743 113.551,279.921 113.462,279.921 113.353 C 279.921 113.244,279.743 113.155,279.525 113.155 C 279.308 113.155,279.130 113.244,279.130 113.353 M91.941 120.219 C 92.187 120.266,92.543 120.265,92.732 120.215 C 92.921 120.166,92.720 120.127,92.285 120.129 C 91.850 120.131,91.695 120.172,91.941 120.219 M93.918 120.308 C 94.085 120.475,94.323 120.481,94.799 120.328 L 95.450 120.120 94.570 120.099 C 93.903 120.084,93.745 120.135,93.918 120.308 M96.095 120.219 C 96.341 120.266,96.697 120.265,96.887 120.215 C 97.076 120.166,96.874 120.127,96.439 120.129 C 96.004 120.131,95.849 120.172,96.095 120.219 M11.606 120.409 C 11.309 120.705,11.460 121.128,11.771 120.870 C 11.934 120.735,12.067 120.546,12.067 120.451 C 12.067 120.246,11.794 120.221,11.606 120.409 M86.944 120.475 L 85.757 120.606 87.377 120.639 C 88.282 120.658,89.051 120.585,89.120 120.475 C 89.251 120.262,88.865 120.262,86.944 120.475 M83.680 120.870 C 83.680 120.979,83.991 121.068,84.372 121.068 C 84.753 121.068,85.064 120.979,85.064 120.870 C 85.064 120.762,84.753 120.673,84.372 120.673 C 83.991 120.673,83.680 120.762,83.680 120.870 M80.069 121.208 C 80.314 121.255,80.715 121.255,80.959 121.208 C 81.204 121.161,81.004 121.122,80.514 121.122 C 80.025 121.122,79.824 121.161,80.069 121.208 M75.767 121.464 C 75.549 121.604,75.695 121.656,76.311 121.659 C 76.773 121.660,77.151 121.573,77.151 121.464 C 77.151 121.211,76.157 121.211,75.767 121.464 M371.118 125.223 C 371.118 125.473,371.522 125.473,371.909 125.223 C 372.140 125.073,372.086 125.030,371.662 125.028 C 371.363 125.026,371.118 125.114,371.118 125.223 M366.568 126.409 C 366.568 126.518,366.741 126.607,366.952 126.607 C 367.163 126.607,367.391 126.518,367.458 126.409 C 367.527 126.297,367.361 126.212,367.074 126.212 C 366.796 126.212,366.568 126.301,366.568 126.409 M363.304 126.805 C 363.459 127.056,364.201 127.056,364.590 126.805 C 364.806 126.665,364.657 126.613,364.034 126.610 C 363.515 126.609,363.229 126.685,363.304 126.805 M358.754 127.003 C 358.677 127.127,359.097 127.200,359.880 127.198 C 360.758 127.196,361.040 127.138,360.831 127.003 C 360.440 126.750,358.910 126.750,358.754 127.003 M352.720 127.399 C 352.720 127.507,352.937 127.596,353.203 127.596 C 353.469 127.596,353.741 127.507,353.808 127.399 C 353.879 127.283,353.678 127.201,353.325 127.201 C 352.992 127.201,352.720 127.290,352.720 127.399 M354.204 127.399 C 354.360 127.651,356.088 127.651,356.479 127.399 C 356.686 127.264,356.371 127.206,355.428 127.204 C 354.580 127.202,354.127 127.274,354.204 127.399 M343.175 127.740 C 343.529 127.783,344.107 127.783,344.461 127.740 C 344.815 127.696,344.525 127.660,343.818 127.660 C 343.111 127.660,342.821 127.696,343.175 127.740 M347.329 127.740 C 347.683 127.783,348.262 127.783,348.615 127.740 C 348.969 127.696,348.680 127.660,347.972 127.660 C 347.265 127.660,346.976 127.696,347.329 127.740 M2.110 128.124 C 1.905 128.329,1.955 128.981,2.176 128.981 C 2.285 128.981,2.374 128.759,2.374 128.487 C 2.374 127.969,2.328 127.906,2.110 128.124 M1.981 130.613 C 1.983 130.858,2.071 131.192,2.176 131.355 C 2.319 131.576,2.369 131.462,2.371 130.910 C 2.373 130.502,2.285 130.168,2.176 130.168 C 2.067 130.168,1.980 130.368,1.981 130.613 M3.363 133.234 C 3.619 133.506,3.901 133.729,3.990 133.729 C 4.079 133.729,3.958 133.506,3.722 133.234 C 3.485 132.962,3.203 132.740,3.095 132.740 C 2.987 132.740,3.107 132.962,3.363 133.234 M60.930 140.851 C 60.930 140.968,61.659 141.048,62.722 141.048 C 63.866 141.048,64.470 140.977,64.392 140.851 C 64.324 140.742,63.518 140.653,62.600 140.653 C 61.618 140.653,60.930 140.734,60.930 140.851 M55.638 141.778 C 55.828 141.828,56.140 141.828,56.330 141.778 C 56.521 141.729,56.365 141.688,55.984 141.688 C 55.603 141.688,55.448 141.729,55.638 141.778 M79.676 141.782 C 79.922 141.829,80.278 141.827,80.467 141.778 C 80.656 141.728,80.455 141.690,80.020 141.692 C 79.585 141.694,79.430 141.735,79.676 141.782 M53.610 142.038 C 53.610 142.146,53.883 142.235,54.215 142.235 C 54.568 142.235,54.770 142.153,54.698 142.038 C 54.631 141.929,54.359 141.840,54.093 141.840 C 53.828 141.840,53.610 141.929,53.610 142.038 M51.236 142.433 C 51.236 142.542,51.365 142.631,51.521 142.631 C 51.678 142.631,51.862 142.542,51.929 142.433 C 51.996 142.324,51.868 142.235,51.644 142.235 C 51.420 142.235,51.236 142.324,51.236 142.433 M87.043 142.433 C 87.432 142.685,87.891 142.685,87.735 142.433 C 87.668 142.324,87.418 142.237,87.179 142.238 C 86.827 142.241,86.801 142.277,87.043 142.433 M47.280 143.027 C 47.280 143.136,47.542 143.225,47.862 143.225 C 48.182 143.225,48.499 143.136,48.566 143.027 C 48.639 142.909,48.403 142.829,47.984 142.829 C 47.597 142.829,47.280 142.918,47.280 143.027 M42.532 143.620 C 42.532 143.729,42.794 143.818,43.114 143.818 C 43.434 143.818,43.751 143.729,43.818 143.620 C 43.891 143.502,43.655 143.422,43.236 143.422 C 42.849 143.422,42.532 143.511,42.532 143.620 M234.817 143.587 C 234.817 143.678,235.080 143.752,235.402 143.752 C 235.723 143.752,235.941 143.678,235.885 143.587 C 235.829 143.497,235.565 143.422,235.300 143.422 C 235.034 143.422,234.817 143.497,234.817 143.587 M40.059 144.016 C 39.992 144.125,40.071 144.214,40.234 144.214 C 40.397 144.214,40.586 144.125,40.653 144.016 C 40.720 143.907,40.642 143.818,40.478 143.818 C 40.315 143.818,40.127 143.907,40.059 144.016 M154.154 144.032 C 154.389 144.169,154.612 144.169,154.847 144.032 C 155.129 143.867,155.065 143.830,154.500 143.830 C 153.936 143.830,153.872 143.867,154.154 144.032 M37.266 144.252 C 37.212 144.340,37.529 144.411,37.971 144.411 C 38.412 144.411,38.773 144.377,38.773 144.334 C 38.773 144.176,37.361 144.099,37.266 144.252 M102.572 145.203 C 102.639 145.312,102.956 145.401,103.276 145.401 C 103.596 145.401,103.858 145.312,103.858 145.203 C 103.858 145.094,103.541 145.005,103.154 145.005 C 102.735 145.005,102.499 145.085,102.572 145.203 M135.905 145.207 C 135.905 145.326,136.126 145.355,136.449 145.278 C 137.226 145.091,137.252 145.005,136.531 145.005 C 136.187 145.005,135.905 145.096,135.905 145.207 M219.782 178.734 C 219.782 178.897,219.871 179.031,219.980 179.031 C 220.089 179.031,220.178 178.897,220.178 178.734 C 220.178 178.571,220.089 178.437,219.980 178.437 C 219.871 178.437,219.782 178.571,219.782 178.734 M219.638 182.789 C 219.638 183.279,219.677 183.479,219.724 183.234 C 219.771 182.990,219.771 182.589,219.724 182.344 C 219.677 182.099,219.638 182.300,219.638 182.789 M223.379 184.796 C 223.414 185.161,223.531 185.438,223.640 185.410 C 223.934 185.337,223.880 184.320,223.576 184.219 C 223.387 184.156,223.332 184.314,223.379 184.796 M219.796 185.410 C 219.789 185.710,219.871 185.955,219.980 185.955 C 220.212 185.955,220.212 185.802,219.980 185.262 C 219.830 184.912,219.809 184.928,219.796 185.410 M223.855 186.499 C 223.928 186.907,224.054 187.329,224.135 187.438 C 224.215 187.547,224.341 187.969,224.414 188.375 C 224.568 189.229,225.307 190.702,225.582 190.702 C 225.877 190.702,225.602 188.946,225.246 188.552 C 225.070 188.358,224.926 187.971,224.926 187.694 C 224.926 186.947,224.372 185.757,224.024 185.757 C 223.782 185.757,223.748 185.906,223.855 186.499 M226.407 191.642 C 226.475 191.778,226.437 191.889,226.322 191.889 C 225.991 191.889,226.079 192.625,226.426 192.758 C 226.876 192.931,226.904 192.917,226.904 192.521 C 226.904 192.324,226.764 191.990,226.593 191.779 C 226.421 191.567,226.338 191.506,226.407 191.642 " stroke="none" fill="#070707" fill-rule="evenodd"></path></g></svg>